Coordinates
version=1
nRows=16
nColumns=42
inDegrees=yes

Units are S.I. units (second, meters, Newtons, ...)
If the header above contains a line with 'inDegrees', this indicates whether rotational values are in degrees (yes) or radians (no).

endheader
time	pelvis_tilt	pelvis_list	pelvis_rotation	pelvis_tx	pelvis_ty	pelvis_tz	hip_flexion_r	hip_adduction_r	hip_rotation_r	knee_angle_r	knee_adduction_r	knee_angle_r_beta	ankle_angle_r	subtalar_angle_r	mtp_angle_r	hip_flexion_l	hip_adduction_l	hip_rotation_l	knee_angle_l	knee_adduction_l	knee_angle_l_beta	ankle_angle_l	subtalar_angle_l	mtp_angle_l	lumbar_extension	lumbar_bending	lumbar_rotation	arm_flex_r	arm_add_r	arm_rot_r	elbow_flex_r	pro_sup_r	wrist_flex_r	wrist_dev_r	arm_flex_l	arm_add_l	arm_rot_l	elbow_flex_l	pro_sup_l	wrist_flex_l	wrist_dev_l
      3.50000000	      2.07843047	     -2.92848129	     -1.64027089	     -0.06508407	      0.92384914	     -0.07663827	      3.77590768	     -4.33943223	    -21.51693060	     31.30162161	      3.87784685	      0.54631636	     23.12155087	     12.30343416	     -7.57569218	     24.48183359	     -8.14764808	    -19.06170082	     37.96180358	     -3.51591377	      0.66255846	     11.16911738	     -0.22748518	     -7.57569218	    -18.42900764	      6.01521356	     -3.07669104	     10.17367490	    -13.84242564	      4.63615748	     40.61845464	     90.00000001	      0.00000000	      0.00000000	    -13.95511219	    -10.06674804	     -1.65674731	     57.96235382	     90.00000001	      0.00000000	      0.00000000
      3.51000000	      2.04881283	     -2.97011722	     -1.89480433	     -0.06147182	      0.92398610	     -0.07746044	      3.57122545	     -4.33662279	    -21.39635550	     31.24257805	      3.79256567	      0.54528585	     23.12207136	     12.30804877	     -7.57557970	     24.29625931	     -8.03193873	    -18.86473052	     38.13707342	     -3.64992229	      0.66561750	     11.20828265	     -0.26976470	     -7.57557970	    -18.20991387	      5.80492099	     -2.99831055	     10.05168315	    -13.72160700	      4.66363038	     40.61478628	     90.00000001	      0.00000000	      0.00000000	    -14.08519222	    -10.05331052	     -1.66513224	     57.89854387	     90.00000001	      0.00000000	      0.00000000
      3.52000000	      2.04264059	     -2.91575180	     -2.18648616	     -0.05791858	      0.92424055	     -0.07828130	      3.30410342	     -4.39185752	    -21.17126651	     31.04852887	      3.67387861	      0.54189906	     23.12776452	     12.33373703	     -7.57542366	     24.06839674	     -7.84391086	    -18.68916956	     38.36150163	     -3.72738726	      0.66953451	     11.33765765	     -0.41793687	     -7.57542366	    -18.03509376	      5.48313951	     -2.89061608	      9.92565158	    -13.58343633	      4.68834870	     40.64539180	     90.00000001	      0.00000000	      0.00000000	    -14.18893491	    -10.06670259	     -1.70286913	     57.81876958	     90.00000001	      0.00000000	      0.00000000
      3.53000000	      2.15441166	     -2.73622104	     -2.56382389	     -0.05434789	      0.92489685	     -0.07903060	      2.76920164	     -4.56299581	    -20.60597483	     30.46967284	      3.70784721	      0.53179611	     23.14802891	     12.44578907	     -7.57492553	     23.56858981	     -7.64577473	    -18.69794981	     38.47070646	     -3.57559909	      0.67144049	     11.77659074	     -1.10651583	     -7.57492553	    -17.99674712	      4.99215882	     -2.71241384	      9.76706683	    -13.44113639	      4.66973133	     40.82710546	     90.00000001	      0.00000000	      0.00000000	    -14.19135362	    -10.05937720	     -1.82856510	     57.69671263	     90.00000001	      0.00000000	      0.00000000
      3.54000000	      2.38085823	     -2.69668874	     -2.93266141	     -0.05076788	      0.92589534	     -0.07985510	      2.07641406	     -4.67302344	    -20.10297439	     29.93610461	      3.92581034	      0.52248359	     23.03725642	     12.52189642	     -7.57404368	     22.82963914	     -7.56929445	    -18.67711674	     38.31764165	     -3.40432007	      0.66876901	     11.90388892	     -1.96981230	     -7.57404368	    -18.10462115	      4.66541096	     -2.48624553	      9.60431633	    -13.34226520	      4.62394804	     41.10377708	     90.00000001	      0.00000000	      0.00000000	    -14.19959174	     -9.98196161	     -1.98930753	     57.53652890	     90.00000001	      0.00000000	      0.00000000
      3.55000000	      2.52361041	     -2.62445683	     -3.19209873	     -0.04732739	      0.92675873	     -0.08094373	      1.50274991	     -4.82877064	    -19.87118208	     29.46023447	      4.01494046	      0.51417809	     22.83920939	     12.51518039	     -7.57264781	     22.23004350	     -7.44718197	    -18.68347186	     38.17198141	     -3.23789100	      0.66622676	     11.79715097	     -2.62961609	     -7.57264781	    -18.11563120	      4.35325576	     -2.39381283	      9.47872246	    -13.22616893	      4.64044526	     41.36383452	     90.00000001	      0.00000000	      0.00000000	    -14.21173804	     -9.93295432	     -2.12953646	     57.38819341	     90.00000001	      0.00000000	      0.00000000
      3.56000000	      2.38685860	     -2.55468808	     -3.41168526	     -0.04400937	      0.92703101	     -0.08208957	      1.32880159	     -4.97061389	    -19.88179996	     29.17524108	      3.94811719	      0.50920402	     22.77934340	     12.54327728	     -7.57237186	     22.04443885	     -7.40529446	    -18.82738515	     38.18712559	     -3.09423212	      0.66649107	     11.90177618	     -2.73561113	     -7.57237186	    -17.79470338	      4.07865207	     -2.36999434	      9.37600195	    -13.07185946	      4.68790896	     41.47490141	     90.00000001	      0.00000000	      0.00000000	    -14.30420914	     -9.92631077	     -2.18016678	     57.29772432	     90.00000001	      0.00000000	      0.00000000
      3.57000000	      2.25702418	     -2.47604857	     -3.65839669	     -0.04069777	      0.92739890	     -0.08324253	      1.10995977	     -5.14001605	    -19.88668109	     28.80721826	      3.93532231	      0.50278081	     22.67984404	     12.64580050	     -7.57210705	     21.78871733	     -7.38721327	    -19.10633544	     38.09621166	     -2.92595623	      0.66490433	     12.06884397	     -2.84459829	     -7.57210705	    -17.48593904	      3.80178482	     -2.33234184	      9.26127504	    -12.93885006	      4.73522474	     41.65895579	     90.00000001	      0.00000000	      0.00000000	    -14.39429978	     -9.91250536	     -2.27415470	     57.16006298	     90.00000001	      0.00000000	      0.00000000
      3.58000000	      2.61436207	     -2.34186113	     -3.99425133	     -0.03719064	      0.92885888	     -0.08443512	      0.17016075	     -5.43957282	    -19.72013775	     28.06478212	      4.11051167	      0.48982285	     22.37352042	     13.30542279	     -7.57059818	     20.77262040	     -7.23158814	    -19.88035697	     37.59620872	     -2.99071103	      0.65617763	     12.29382444	     -2.60571885	     -7.57059818	    -17.75095512	      3.42464062	     -2.10435778	      9.03619750	    -12.92489766	      4.90673009	     42.24552725	     90.00000001	      0.00000000	      0.00000000	    -14.26681286	     -9.74117117	     -2.63481026	     56.87864107	     90.00000001	      0.00000000	      0.00000000
      3.59000000	      2.77955508	     -2.21116468	     -4.24278182	     -0.03370237	      0.92986778	     -0.08563774	     -0.49895592	     -5.72930839	    -19.95092370	     27.47146234	      4.12349444	      0.47946747	     22.19574109	     14.00618536	     -7.56818967	     20.06291033	     -7.14424795	    -20.77389848	     37.23885730	     -3.09460749	      0.64994067	     12.62907736	     -1.60083959	     -7.56818967	    -17.77915802	      3.07648110	     -2.02293415	      8.86780956	    -12.85366323	      5.20520417	     42.64757081	     90.00000001	      0.00000000	      0.00000000	    -14.28160733	     -9.65849596	     -2.85399879	     56.73196072	     90.00000001	      0.00000000	      0.00000000
      3.60000000	      2.52602538	     -2.19745435	     -4.42508601	     -0.03067079	      0.93006347	     -0.08703822	     -0.55687366	     -5.86360400	    -20.12482706	     27.19480747	      4.13687137	      0.47463893	     22.12688529	     14.05515706	     -7.56798337	     19.96563113	     -7.19233412	    -21.05710145	     37.08787788	     -2.88566477	      0.64730558	     12.75719405	     -1.56835484	     -7.56798337	    -17.36068017	      2.95068493	     -2.04538818	      8.85181980	    -12.71490473	      5.25601967	     42.80785784	     90.00000001	      0.00000000	      0.00000000	    -14.39311817	     -9.65301276	     -2.88717881	     56.64213694	     90.00000001	      0.00000000	      0.00000000
      3.61000000	      2.32357557	     -2.12961003	     -4.63686931	     -0.02762454	      0.93041151	     -0.08834526	     -0.70318797	     -6.05549769	    -20.30023255	     26.80342936	      4.16724601	      0.46780809	     21.97385350	     14.19780087	     -7.56775507	     19.76950891	     -7.18377184	    -21.40084442	     36.87755056	     -2.67517608	      0.64363468	     12.92779441	     -1.48451340	     -7.56775507	    -16.99640262	      2.73713825	     -2.00257156	      8.76173381	    -12.58188014	      5.34003225	     43.04216276	     90.00000001	      0.00000000	      0.00000000	    -14.45467707	     -9.61962764	     -2.97603754	     56.50079402	     90.00000001	      0.00000000	      0.00000000
      3.62000000	      2.80698345	     -1.96624669	     -4.93945757	     -0.02391641	      0.93202726	     -0.08969653	     -1.82926087	     -6.48047661	    -20.79563121	     26.03441811	      4.21709011	      0.45438631	     21.64621648	     15.87142558	     -7.56261582	     18.58287243	     -6.96985609	    -23.00621539	     36.23068444	     -3.17913489	      0.63234473	     13.68548170	      1.07868488	     -7.56261582	    -17.38126109	      2.36549281	     -1.80556856	      8.51183372	    -12.70208589	      5.90587941	     43.81732665	     90.00000001	      0.00000000	      0.00000000	    -14.32674519	     -9.45043878	     -3.36818638	     56.24197333	     90.00000001	      0.00000000	      0.00000000
      3.63000000	      2.57811898	     -1.95309179	     -5.11638379	     -0.02102778	      0.93228715	     -0.09105210	     -1.90038598	     -6.62381334	    -21.01052798	     25.76282030	      4.26987807	      0.44964604	     21.55693275	     15.89059548	     -7.56244419	     18.45915408	     -7.00405366	    -23.22960251	     36.06465613	     -2.93893619	      0.62944699	     13.76524348	      1.07541606	     -7.56244419	    -17.01494516	      2.25005087	     -1.81422448	      8.50889290	    -12.54453158	      5.96972511	     44.01004221	     90.00000001	      0.00000000	      0.00000000	    -14.42331514	     -9.44869386	     -3.40652049	     56.14865713	     90.00000001	      0.00000000	      0.00000000
      3.64000000	      2.75256587	     -1.78100900	     -5.32513402	     -0.01786028	      0.93342153	     -0.09252162	     -2.60004363	     -7.00199610	    -21.20777961	     25.09964541	      4.46286645	      0.43807145	     20.98573666	     16.45042538	     -7.56150145	     17.68779756	     -6.68220715	    -23.59110496	     35.46866041	     -2.83917865	      0.61904491	     13.99952547	      1.38864143	     -7.56150145	    -17.09933534	      1.93142110	     -1.68974253	      8.29081976	    -12.55463801	      6.26799113	     44.68920278	     90.00000001	      0.00000000	      0.00000000	    -14.27277873	     -9.32214673	     -3.68140678	     55.84173451	     90.00000001	      0.00000000	      0.00000000
      3.65000000	      2.56688789	     -1.78193949	     -5.50129625	     -0.01502269	      0.93372840	     -0.09383194	     -2.70580124	     -7.13688059	    -21.50263464	     24.86110823	      4.53637555	      0.43390819	     20.93355238	     16.47906701	     -7.56131185	     17.52774501	     -6.71493574	    -23.81528185	     35.30942231	     -2.61830899	      0.61626568	     14.04931305	      1.44850003	     -7.56131185	    -16.79802896	      1.83770802	     -1.66776811	      8.30057963	    -12.40395990	      6.37897232	     44.87835153	     90.00000001	      0.00000000	      0.00000000	    -14.35867414	     -9.31319758	     -3.71515327	     55.78037659	     90.00000001	      0.00000000	      0.00000000
